# xmcd
#
# Track frame offsets: 
#        150
#        28750
#        42859
#        56278
#        69238
#        91504
#        104314
#        120188
#        132595
#
# Disc length: 1891 seconds
#
# Revision: 4
# Processed by: cddbd v1.5.1PL2 Copyright (c) Steve Scherf et al.
# Submitted via: ExactAudioCopy v0.95b4
#
DISCID=67076109,79076109
DTITLE=George McCrae - Rock Your Baby
DYEAR=1974
DGENRE=R&B
TTITLE0=Rock Your Baby
TTITLE1=I Can't Leave You Alone
TTITLE2=You Got My Heart
TTITLE3=You Can Have It All
TTITLE4=Look At You
TTITLE5=Make It Right
TTITLE6=I Need Somebody Like You
TTITLE7=I Get Lifted
TTITLE8=Rock Your Baby (Reprise)
EXTD=
EXTT0=
EXTT1=
EXTT2=
EXTT3=
EXTT4=
EXTT5=
EXTT6=
EXTT7=
EXTT8=
PLAYORDER=
